<?xml version="1.0" encoding="utf-8"?>
<!-- Generator: Adobe Illustrator 19.2.1, SVG Export Plug-In . SVG Version: 6.00 Build 0)  -->
<svg version="1.1" id="Layer_1" xmlns="http://www.w3.org/2000/svg" xmlns:xlink="http://www.w3.org/1999/xlink" x="0px" y="0px"
	 viewBox="0 0 83 74" style="enable-background:new 0 0 287.3 74;" xml:space="preserve">
<style type="text/css">
	.st0{fill:#484747;}
	.st1{fill-rule:evenodd;clip-rule:evenodd;fill:#484747;}
	.st2{fill-rule:evenodd;clip-rule:evenodd;fill:#484747;}
	.st3{fill:#484747;}
	.st4{fill:#484747;}
</style>
<g>
	<g>
		<path class="st0" d="M39.9,50.7c1.8,0.7,3.4,1.7,5.1,2.5c2.9,1.2,6,1.6,9.1,1.5c0.2,0,0.3,0,0.5,0.1c0.6,0.3,0.4,1.2,0,1.8
			c-0.6,1-1.3,2-2.2,2.8c2.9-1.1,5.9-1.7,9-1.7c1.5,0,3.4,0.4,3.9,1.9c1-0.1,1.4-1.5,0.9-2.5c-0.4-0.9-1.4-1.4-2.3-1.8
			c-6.8-2.8-14.2-3-21.1-5.5c-0.1-0.4,0.1-0.8,0.4-1.1c0.3-0.2,0.7-0.3,1.1-0.3c1.7-0.1,3.4,0.1,5,0.7c1.1,0.4,2.2,0.8,3.4,0.8
			c1.2-0.1,2.4-0.9,2.5-2.1c-2.9-0.3-5.5-2-8.2-3.2c-2-0.9-4.2-1.4-6.3-1.8c-1.5-0.3-3.1-0.4-4.6-0.3c-3.8,0.3-7.4,2.6-9.7,5.9
			c-0.5,0.7-1.3,1.8-1.5,2.6c-0.2,1,1,0.7,1.5,0.5c2-1,4-1.7,6.2-1.9C35.1,49.4,37.6,49.8,39.9,50.7"/>
		<path class="st0" d="M59.4,59.6c-2.8,0.1-8.6,2.4-11.4,2.5c-9.9,0.4-12.2-2.6-12.3-3.7c3.6,0.6,10.2,2.4,14.6,0.4
			c1-0.5,1.8-0.8,2.1-1.9c-3.5-0.2-6.8-0.9-10.1-2c-1.4-0.5-3.6-1.7-5-2.1c-3.1-1-5.7-1-8.9-0.1c-2.9,0.7-6.5,1.6-8.3,4.2
			c-2.4,3.7,0.2,6.5,1.3,7.4c0.5-0.3,1-0.5,1.6-0.6c1.6-0.3,3.2,0.3,4.6,1.3c1.4,0.9,2.6,2.1,4,3.1c3.3,2.1,7.2,2.9,11,2.3
			c3.8-0.6,7.4-2.6,11-4.2c3.5-1.6,6.5-3.2,10.3-3.9C64.2,60.1,63.3,59.4,59.4,59.6"/>
		<path class="st0" d="M39.9,50.7c1.8,0.7,3.4,1.7,5.1,2.5c2.9,1.2,6,1.6,9.1,1.5c0.2,0,0.3,0,0.5,0.1c0.6,0.3,0.4,1.2,0,1.8
			c-0.6,1-1.3,2-2.2,2.8c2.9-1.1,5.9-1.7,9-1.7c1.5,0,3.4,0.4,3.9,1.9c1-0.1,1.4-1.5,0.9-2.5c-0.4-0.9-1.4-1.4-2.3-1.8
			c-6.8-2.8-14.2-3-21.1-5.5c-0.1-0.4,0.1-0.8,0.4-1.1c0.3-0.2,0.7-0.3,1.1-0.3c1.7-0.1,3.4,0.1,5,0.7c1.1,0.4,2.2,0.8,3.4,0.8
			c1.2-0.1,2.4-0.9,2.5-2.1c-2.9-0.3-5.5-2-8.2-3.2c-2-0.9-4.2-1.4-6.3-1.8c-1.5-0.3-3.1-0.4-4.6-0.3c-3.8,0.3-7.4,2.6-9.7,5.9
			c-0.5,0.7-1.3,1.8-1.5,2.6c-0.2,1,1,0.7,1.5,0.5c2-1,4-1.7,6.2-1.9C35.1,49.4,37.6,49.8,39.9,50.7"/>
		<path class="st1" d="M34.3,30.4c-1.8-5.3-2.3-5.9-7.6-7.5C27.1,25.8,30,29.5,34.3,30.4"/>
		<path class="st1" d="M41.4,28.4c1.9-5.3,1.9-6.1-1.2-10.6C38.7,20.3,38.5,25,41.4,28.4"/>
		<path class="st1" d="M49.2,30c4.1-3.9,4.4-4.6,3.7-10C50.4,21.5,48.2,25.7,49.2,30"/>
		<path class="st1" d="M45.7,24.3c3.5-4.5,3.7-5.2,2.1-10.5C45.6,15.7,44,20.2,45.7,24.3"/>
		<path class="st1" d="M36,25.1c0.7-5.6,0.5-6.3-3.5-10.1C31.6,17.8,32.5,22.4,36,25.1"/>
		<path class="st1" d="M55.7,27.9c4.6-3.2,5.1-3.8,5.2-9.3C58.2,19.8,55.4,23.5,55.7,27.9"/>
		<path class="st1" d="M55.5,34.5c5.3-1.9,5.9-2.3,7.5-7.7C60,27.3,56.3,30.2,55.5,34.5"/>
		<path class="st1" d="M60.8,35.9c5.6-0.8,6.2-1.2,8.8-6.1C66.7,29.7,62.5,31.8,60.8,35.9"/>
		<path class="st1" d="M58.9,41.8c5.5,1.3,6.2,1.2,10.4-2.4C66.6,38.2,61.9,38.6,58.9,41.8"/>
		<path class="st1" d="M62.4,46.2c5.2,2.2,5.9,2.2,10.6-0.6C70.6,44,66,43.6,62.4,46.2"/>
		<path class="st1" d="M28.3,30.2c-2.6-5-3.1-5.5-8.6-6.4C20.5,26.7,23.9,30,28.3,30.2"/>
		<path class="st1" d="M28.9,35.4c-3.4-4.5-4-4.9-9.5-4.7C20.6,33.3,24.5,35.9,28.9,35.4"/>
		<path class="st1" d="M24.5,38c-4.1-3.9-4.8-4.2-10.2-3.1C16,37.3,20.2,39.3,24.5,38"/>
		<path class="st1" d="M27.3,42.5c-4.7-3-5.5-3.2-10.6-1.1C18.9,43.4,23.4,44.5,27.3,42.5"/>
		<path class="st1" d="M23.5,46.8c-5.3-1.8-6.1-1.8-10.6,1.5C15.5,49.7,20.2,49.8,23.5,46.8"/>
		<path class="st1" d="M42.7,18.2c1.6-3.6,1.6-4.1-0.4-7.4C41.2,12.5,40.9,15.8,42.7,18.2"/>
		<path class="st1" d="M62.2,24.3c3.5-1.8,3.8-2.1,4.4-5.9C64.6,18.9,62.3,21.2,62.2,24.3"/>
		<path class="st1" d="M67.6,36.2c3.8,0.6,4.3,0.5,7-2.2C72.7,33.2,69.6,33.8,67.6,36.2"/>
		<path class="st1" d="M65,50.5c3.2,2.3,3.7,2.4,7.3,1.1C70.9,50.1,67.8,49.2,65,50.5"/>
		<path class="st1" d="M30.7,22c-0.4-3.9-0.7-4.3-4-6.2C26.5,17.8,27.9,20.7,30.7,22"/>
		<path class="st1" d="M25.8,22.8c-1.7-3.5-2-3.9-5.8-4.6C20.5,20.2,22.7,22.5,25.8,22.8"/>
		<path class="st1" d="M18.4,32.2c-2.4-3.1-2.8-3.3-6.6-3.2C12.7,30.8,15.4,32.6,18.4,32.2"/>
		<path class="st1" d="M16.8,43.5c-3.4-2-3.9-2-7.3-0.5C11,44.3,14.1,45,16.8,43.5"/>
		<path class="st2" d="M37.6,18.5c1.6-3.6,1.6-4.1-0.4-7.4C36,12.8,35.7,16,37.6,18.5"/>
		<path class="st2" d="M50.3,18.9c2.8-2.7,3-3.2,2.4-7C51.1,13,49.6,15.9,50.3,18.9"/>
		<path class="st2" d="M54.5,20.8c3.2-2.2,3.5-2.6,3.7-6.4C56.4,15.1,54.4,17.7,54.5,20.8"/>
		<path class="st2" d="M64.6,28.1c3.9-0.5,4.3-0.7,6.2-4C68.7,23.9,65.8,25.3,64.6,28.1"/>
		<path class="st2" d="M68.7,42.1c3.8,0.6,4.3,0.5,7-2.2C73.8,39.2,70.6,39.7,68.7,42.1"/>
		<path class="st2" d="M20.4,28.4c-2.2-3.2-2.6-3.5-6.4-3.6C14.8,26.7,17.4,28.7,20.4,28.4"/>
		<path class="st2" d="M15.1,38.7c-3-2.5-3.5-2.6-7.2-1.7C9.2,38.5,12.2,39.7,15.1,38.7"/>
		<path class="st2" d="M19,50.8c-3.9-0.4-4.4-0.3-6.9,2.5C14,53.9,17.1,53.2,19,50.8"/>
		<path class="st3" d="M73.5,18.2c-0.5,0-0.9-0.4-0.8-0.9c0-0.5,0.4-0.9,0.9-0.8c0.5,0,0.9,0.4,0.8,0.9C74.4,17.8,74,18.2,73.5,18.2
			"/>
		<path class="st3" d="M79.2,52.2c-0.4,0-0.7-0.3-0.6-0.7c0-0.4,0.3-0.7,0.7-0.6c0.4,0,0.7,0.3,0.6,0.7C79.9,52,79.6,52.3,79.2,52.2
			"/>
		<path class="st3" d="M73.7,30.2c-0.6,0-1.1-0.6-1.1-1.2c0-0.6,0.6-1.1,1.2-1.1c0.6,0,1.1,0.6,1.1,1.2
			C74.8,29.7,74.3,30.2,73.7,30.2"/>
		<path class="st3" d="M14.8,22c-0.4,0-0.7-0.3-0.6-0.7c0-0.4,0.3-0.7,0.7-0.6c0.4,0,0.7,0.3,0.6,0.7C15.5,21.7,15.2,22,14.8,22"/>
		<path class="st3" d="M36.6,6.7C36.3,6.7,36,6.4,36,6c0-0.4,0.3-0.7,0.7-0.6c0.4,0,0.7,0.3,0.6,0.7C37.3,6.4,37,6.7,36.6,6.7"/>
		<path class="st3" d="M9.2,49.8c-0.7,0-1.3-0.7-1.3-1.4c0-0.7,0.7-1.3,1.4-1.3c0.7,0,1.3,0.7,1.3,1.4C10.5,49.2,9.9,49.8,9.2,49.8"
			/>
		<path class="st3" d="M17,13c-0.7,0-1.3-0.7-1.3-1.4c0-0.7,0.7-1.3,1.4-1.3c0.7,0,1.3,0.7,1.3,1.4C18.4,12.4,17.7,13,17,13"/>
		<path class="st3" d="M7.4,33c-0.4,0-0.7-0.3-0.6-0.7c0-0.4,0.3-0.7,0.7-0.6c0.4,0,0.7,0.3,0.6,0.7C8.1,32.7,7.8,33,7.4,33"/>
		<path class="st3" d="M24.5,12.6c-0.4,0-0.7-0.3-0.6-0.7c0-0.4,0.3-0.7,0.7-0.6s0.7,0.3,0.6,0.7C25.2,12.3,24.9,12.6,24.5,12.6"/>
		<path class="st3" d="M70.2,57.2c-0.7,0-1.3-0.7-1.3-1.4c0-0.7,0.7-1.3,1.4-1.3c0.7,0,1.3,0.7,1.3,1.4C71.6,56.6,71,57.2,70.2,57.2
			"/>
		<path class="st3" d="M74,49.5c-0.4,0-0.7-0.3-0.6-0.7c0-0.4,0.3-0.7,0.7-0.6c0.4,0,0.7,0.3,0.6,0.7C74.7,49.2,74.4,49.5,74,49.5"
			/>
		<path class="st3" d="M60.6,13.9c-0.6,0-1.1-0.6-1.1-1.2c0-0.6,0.6-1.1,1.2-1.1c0.6,0,1.1,0.6,1.1,1.2
			C61.7,13.4,61.2,13.9,60.6,13.9"/>
		<path class="st3" d="M56.2,6.8c-0.4,0-0.7-0.3-0.6-0.7c0-0.4,0.3-0.7,0.7-0.6s0.7,0.3,0.6,0.7C56.9,6.5,56.6,6.8,56.2,6.8"/>
		<path class="st3" d="M2.3,50.2c-0.4,0-0.7-0.3-0.6-0.7c0-0.4,0.3-0.7,0.7-0.6c0.4,0,0.7,0.3,0.6,0.7C3,49.9,2.7,50.2,2.3,50.2"/>
		<path class="st3" d="M80.4,39.7c-0.6,0-1.1-0.6-1.1-1.2c0-0.6,0.6-1.1,1.2-1.1c0.6,0,1.1,0.6,1.1,1.2C81.6,39.2,81,39.7,80.4,39.7
			"/>
		<path class="st3" d="M47.5,8.8c-0.6,0-1.1-0.6-1.1-1.2c0-0.6,0.6-1.1,1.2-1.1c0.6,0,1.1,0.6,1.1,1.2C48.7,8.3,48.2,8.8,47.5,8.8"
			/>
	</g>
	
</g>
</svg>
