<?xml version="1.0" encoding="utf-8"?>
<!-- Generator: Adobe Illustrator 19.2.1, SVG Export Plug-In . SVG Version: 6.00 Build 0)  -->
<svg version="1.1" id="Layer_1" xmlns="http://www.w3.org/2000/svg" xmlns:xlink="http://www.w3.org/1999/xlink" x="0px" y="0px"
	 viewBox="0 0 127 127" style="enable-background:new 0 0 127 127;" xml:space="preserve">
<style type="text/css">
	.st0{fill:#33ECEE;}
	.st1{fill:#0FCED3;}
	.st2{fill-rule:evenodd;clip-rule:evenodd;fill:#0FCED3;}
	.st3{opacity:0.6;}
	.st4{opacity:0.4;}
</style>
<g>
	<circle class="st0" cx="63.5" cy="63.5" r="63"/>
	<g>
		<g>
			<path class="st1" d="M60.5,73.4c1.6,0.6,3.1,1.6,4.6,2.2c2.6,1.1,5.4,1.4,8.2,1.3c0.2,0,0.3,0,0.5,0.1c0.5,0.2,0.3,1.1,0,1.6
				c-0.5,0.9-1.2,1.8-2,2.5c2.6-1,5.4-1.5,8.1-1.5c1.4,0,3.1,0.3,3.6,1.7c0.9-0.1,1.2-1.4,0.8-2.2s-1.2-1.3-2.1-1.6
				c-6.1-2.6-12.9-2.7-19.1-5c-0.1-0.4,0.1-0.8,0.4-1c0.3-0.2,0.7-0.2,1-0.3c1.5-0.1,3.1,0.1,4.5,0.6c1,0.3,2,0.8,3,0.7
				c1-0.1,2.2-0.8,2.3-1.9c-2.6-0.3-5-1.8-7.4-2.9c-1.8-0.8-3.8-1.3-5.7-1.6c-1.4-0.2-2.8-0.4-4.2-0.2c-3.4,0.3-6.7,2.4-8.8,5.3
				c-0.5,0.6-1.2,1.6-1.3,2.4c-0.2,0.9,0.9,0.7,1.4,0.4c1.8-0.9,3.6-1.5,5.6-1.7C56.1,72.3,58.4,72.6,60.5,73.4z"/>
			<path class="st1" d="M78.1,81.4c-2.5,0.1-7.8,2.1-10.3,2.2c-9,0.3-11-2.3-11.1-3.4c3.3,0.6,9.2,2.2,13.2,0.4
				c0.9-0.4,1.6-0.7,1.9-1.8c-3.1-0.2-6.1-0.8-9.1-1.8c-1.3-0.4-3.2-1.5-4.5-1.9c-2.8-0.9-5.2-0.9-8-0.1c-2.6,0.7-5.9,1.4-7.5,3.8
				c-2.2,3.3,0.2,5.9,1.1,6.7c0.5-0.3,0.9-0.5,1.5-0.6c1.5-0.3,2.9,0.3,4.2,1.2c1.2,0.8,2.3,1.9,3.6,2.8c2.9,1.9,6.5,2.7,9.9,2.1
				c3.4-0.6,6.7-2.4,9.9-3.8c3.2-1.4,5.9-2.9,9.3-3.5C82.5,82,81.7,81.3,78.1,81.4z"/>
			<path class="st1" d="M60.5,73.4c1.6,0.6,3.1,1.6,4.6,2.2c2.6,1.1,5.4,1.4,8.2,1.3c0.2,0,0.3,0,0.5,0.1c0.5,0.2,0.3,1.1,0,1.6
				c-0.5,0.9-1.2,1.8-2,2.5c2.6-1,5.4-1.5,8.1-1.5c1.4,0,3.1,0.3,3.6,1.7c0.9-0.1,1.2-1.4,0.8-2.2s-1.2-1.3-2.1-1.6
				c-6.1-2.6-12.9-2.7-19.1-5c-0.1-0.4,0.1-0.8,0.4-1c0.3-0.2,0.7-0.2,1-0.3c1.5-0.1,3.1,0.1,4.5,0.6c1,0.3,2,0.8,3,0.7
				c1-0.1,2.2-0.8,2.3-1.9c-2.6-0.3-5-1.8-7.4-2.9c-1.8-0.8-3.8-1.3-5.7-1.6c-1.4-0.2-2.8-0.4-4.2-0.2c-3.4,0.3-6.7,2.4-8.8,5.3
				c-0.5,0.6-1.2,1.6-1.3,2.4c-0.2,0.9,0.9,0.7,1.4,0.4c1.8-0.9,3.6-1.5,5.6-1.7C56.1,72.3,58.4,72.6,60.5,73.4z"/>
		</g>
		<g>
			<g>
				<path class="st2" d="M55.4,55c-1.6-4.8-2.1-5.3-6.8-6.8C49,50.9,51.5,54.3,55.4,55L55.4,55z"/>
				<path class="st2" d="M61.8,53.3c1.7-4.8,1.7-5.5-1.1-9.6C59.4,46,59.3,50.2,61.8,53.3L61.8,53.3z"/>
				<path class="st2" d="M68.9,54.7c3.7-3.5,4-4.1,3.3-9.1C70,47.1,68,50.8,68.9,54.7L68.9,54.7z"/>
				<path class="st2" d="M65.7,49.6c3.1-4,3.3-4.7,1.9-9.5C65.7,41.8,64.2,45.8,65.7,49.6L65.7,49.6z"/>
				<path class="st2" d="M57,50.3c0.6-5.1,0.5-5.7-3.2-9.1C53,43.7,53.8,47.8,57,50.3L57,50.3z"/>
				<path class="st2" d="M74.8,52.8c4.2-2.9,4.6-3.4,4.7-8.4C77.1,45.4,74.5,48.8,74.8,52.8L74.8,52.8z"/>
				<path class="st2" d="M74.6,58.8c4.8-1.7,5.3-2.1,6.7-6.9C78.7,52.3,75.3,54.9,74.6,58.8L74.6,58.8z"/>
				<path class="st2" d="M79.4,60.1c5-0.7,5.6-1,8-5.5C84.7,54.5,80.9,56.3,79.4,60.1L79.4,60.1z"/>
				<path class="st2" d="M77.6,65.4c4.9,1.2,5.6,1.1,9.4-2.1C84.6,62.1,80.4,62.5,77.6,65.4L77.6,65.4z"/>
				<path class="st2" d="M80.9,69.4c4.7,2,5.3,2,9.6-0.6C88.3,67.4,84.1,67,80.9,69.4L80.9,69.4z"/>
				<path class="st2" d="M50,54.9c-2.3-4.5-2.8-5-7.7-5.7C43,51.7,46,54.7,50,54.9L50,54.9z"/>
				<path class="st2" d="M50.5,59.6c-3.1-4.1-3.6-4.4-8.6-4.3C43,57.7,46.5,60.1,50.5,59.6L50.5,59.6z"/>
				<path class="st2" d="M46.5,62c-3.7-3.5-4.3-3.8-9.2-2.8C38.9,61.3,42.7,63.1,46.5,62L46.5,62z"/>
				<path class="st2" d="M49.1,66c-4.3-2.7-4.9-2.9-9.6-1C41.5,66.8,45.5,67.9,49.1,66L49.1,66z"/>
				<path class="st2" d="M45.7,69.9c-4.8-1.6-5.5-1.6-9.5,1.3C38.4,72.6,42.6,72.6,45.7,69.9L45.7,69.9z"/>
				<path class="st2" d="M63,44.1c1.4-3.2,1.4-3.7-0.3-6.7C61.6,38.9,61.4,41.8,63,44.1L63,44.1z"/>
				<path class="st2" d="M80.6,49.6c3.1-1.6,3.4-1.9,4-5.4C82.9,44.7,80.8,46.8,80.6,49.6L80.6,49.6z"/>
				<path class="st2" d="M85.6,60.3c3.5,0.5,3.9,0.4,6.4-2C90.2,57.7,87.3,58.1,85.6,60.3L85.6,60.3z"/>
				<path class="st2" d="M83.2,73.2c2.9,2,3.3,2.2,6.6,1C88.5,72.9,85.7,72.1,83.2,73.2L83.2,73.2z"/>
				<path class="st2" d="M52.2,47.4c-0.4-3.5-0.6-3.9-3.6-5.6C48.4,43.7,49.6,46.3,52.2,47.4L52.2,47.4z"/>
				<path class="st2" d="M47.7,48.2c-1.5-3.2-1.8-3.5-5.2-4.1C43,45.8,45,47.9,47.7,48.2L47.7,48.2z"/>
				<path class="st2" d="M41.1,56.7c-2.2-2.8-2.6-3-6-2.9C35.9,55.5,38.3,57.1,41.1,56.7L41.1,56.7z"/>
				<path class="st2" d="M39.6,66.9c-3-1.8-3.5-1.8-6.6-0.4C34.3,67.7,37.2,68.3,39.6,66.9L39.6,66.9z"/>
			</g>
			<g class="st3">
				<path class="st2" d="M58.4,44.3c1.4-3.2,1.4-3.7-0.3-6.7C57,39.1,56.7,42,58.4,44.3L58.4,44.3z"/>
				<path class="st2" d="M69.9,44.7c2.5-2.5,2.7-2.9,2.2-6.3C70.6,39.4,69.2,42,69.9,44.7L69.9,44.7z"/>
				<path class="st2" d="M73.7,46.4c2.9-2,3.2-2.3,3.4-5.8C75.4,41.3,73.6,43.6,73.7,46.4L73.7,46.4z"/>
				<path class="st2" d="M82.8,53c3.5-0.4,3.9-0.6,5.6-3.6C86.6,49.2,83.9,50.5,82.8,53L82.8,53z"/>
				<path class="st2" d="M86.5,65.7c3.5,0.5,3.9,0.4,6.4-2C91.2,63,88.3,63.5,86.5,65.7L86.5,65.7z"/>
				<path class="st2" d="M42.9,53.3c-2-2.9-2.4-3.2-5.8-3.2C37.8,51.7,40.1,53.5,42.9,53.3L42.9,53.3z"/>
				<path class="st2" d="M38.1,62.5c-2.7-2.2-3.1-2.4-6.5-1.5C32.7,62.4,35.4,63.5,38.1,62.5L38.1,62.5z"/>
				<path class="st2" d="M41.6,73.5c-3.5-0.4-3.9-0.3-6.3,2.3C37,76.3,39.9,75.7,41.6,73.5L41.6,73.5z"/>
			</g>
		</g>
		<g class="st4">
			
				<ellipse transform="matrix(4.055010e-02 -0.9992 0.9992 4.055010e-02 44.0065 132.3069)" class="st1" cx="90.9" cy="43.2" rx="0.8" ry="0.8"/>
			
				<ellipse transform="matrix(4.055010e-02 -0.9992 0.9992 4.055010e-02 18.0216 167.2189)" class="st1" cx="96.1" cy="74.2" rx="0.6" ry="0.6"/>
			
				<ellipse transform="matrix(4.055010e-02 -0.9992 0.9992 4.055010e-02 33.566 142.6763)" class="st1" cx="91.1" cy="53.9" rx="1" ry="1"/>
			
				<ellipse transform="matrix(4.055010e-02 -0.9992 0.9992 4.055010e-02 -10.5147 82.7678)" class="st1" cx="37.8" cy="46.9" rx="0.6" ry="0.6"/>
			
				<ellipse transform="matrix(4.055010e-02 -0.9992 0.9992 4.055010e-02 22.2455 89.1959)" class="st1" cx="57.6" cy="33" rx="0.6" ry="0.6"/>
			
				<ellipse transform="matrix(4.055010e-02 -0.9992 0.9992 4.055010e-02 -39.9217 101.2204)" class="st1" cx="32.7" cy="71.4" rx="1.2" ry="1.2"/>
			
				<ellipse transform="matrix(4.055010e-02 -0.9992 0.9992 4.055010e-02 0.1288 76.3595)" class="st1" cx="39.8" cy="38.1" rx="1.2" ry="1.2"/>
			
				<ellipse transform="matrix(4.055010e-02 -0.9992 0.9992 4.055010e-02 -26.9038 85.6231)" class="st1" cx="31.1" cy="56.8" rx="0.6" ry="0.6"/>
			
				<ellipse transform="matrix(4.055010e-02 -0.9992 0.9992 4.055010e-02 6.3558 83.3945)" class="st1" cx="46.6" cy="38.4" rx="0.6" ry="0.6"/>
			
				<ellipse transform="matrix(4.055010e-02 -0.9992 0.9992 4.055010e-02 6.4038 162.8011)" class="st1" cx="88" cy="78.1" rx="1.2" ry="1.2"/>
			
				<ellipse transform="matrix(4.055010e-02 -0.9992 0.9992 4.055010e-02 16.0453 160.1102)" class="st1" cx="91.4" cy="71.7" rx="0.6" ry="0.6"/>
			
				<ellipse transform="matrix(4.055010e-02 -0.9992 0.9992 4.055010e-02 36.9375 116.6696)" class="st1" cx="79.2" cy="39.1" rx="1" ry="1"/>
			
				<ellipse transform="matrix(4.055010e-02 -0.9992 0.9992 4.055010e-02 39.1126 106.9771)" class="st1" cx="75.3" cy="33.1" rx="0.6" ry="0.6"/>
			
				<ellipse transform="matrix(4.055010e-02 -0.9992 0.9992 4.055010e-02 -46.8445 95.9476)" class="st1" cx="26.5" cy="72.4" rx="0.6" ry="0.6"/>
			
				<ellipse transform="matrix(4.055010e-02 -0.9992 0.9992 4.055010e-02 30.8221 157.0162)" class="st1" cx="97.2" cy="62.5" rx="1" ry="1"/>
			
				<ellipse transform="matrix(4.055010e-02 -0.9992 0.9992 4.055010e-02 30.2822 100.4503)" class="st1" cx="67.4" cy="34.5" rx="1" ry="1"/>
		</g>
	</g>
	<g>
		<path d="M14.4,63l-0.1-1.3l6.4,1.8l0.1,1.3l-4.7,1.7l4.9,1.2L21,69l-6.2,2.5l-0.1-1.3l4.9-1.8l-5.1-1.2l-0.1-1.2l5-1.8L14.4,63z"
			/>
		<path d="M15.9,52.1l1.3-4.5l1,0.3l-1,3.3l1.5,0.4l0.9-3l1,0.3l-0.9,3l1.5,0.5l1-3.4l1,0.3L22,53.9L15.9,52.1z"/>
		<path d="M21.6,38.2c0.2,0,0.3,0,0.5,0.1c0.1,0,0.1,0.1,0.2,0.2s0.1,0.1,0.2,0.2l0.6,1.1l-0.3,0.5L22,39.3c-0.2,0.1-0.4,0.1-0.6,0
			c-0.2-0.1-0.3-0.2-0.3-0.4c0-0.2,0-0.3,0.1-0.5C21.3,38.3,21.4,38.2,21.6,38.2z"/>
		<path d="M34.9,32.3l-2.1-0.6c0,0-0.1,0.1-0.2,0.2l-1,1l1.3,1.3L32.1,35l-4.4-4.6l1.9-1.8c0.6-0.6,1.2-0.9,1.8-0.9
			c0.6,0,1.1,0.2,1.6,0.7c0.3,0.4,0.6,0.7,0.6,1.1c0.1,0.4,0,0.8-0.1,1.2l2.5,0.5L34.9,32.3z M30.9,32.1l1-1
			c0.3-0.3,0.5-0.6,0.5-0.9c0-0.3-0.1-0.6-0.4-0.9c-0.3-0.3-0.6-0.4-0.9-0.4c-0.3,0-0.6,0.2-1,0.5l-1,1L30.9,32.1z"/>
		<path d="M39.7,21.1l4.2-2.1l0.5,0.9l-3.1,1.5l0.7,1.4l2.8-1.4l0.5,0.9l-2.8,1.4l0.7,1.4l3.2-1.6l0.5,0.9l-4.3,2.1L39.7,21.1z"/>
		<path d="M87,22.2c-0.2-0.3-0.4-0.5-0.7-0.6c-0.3-0.2-0.7-0.3-1.1-0.2c-0.4,0-0.7,0.1-1,0.3c-0.3,0.2-0.6,0.5-0.7,0.8
			c-0.2,0.3-0.3,0.7-0.3,1.1c0,0.4,0.1,0.7,0.3,1c0.2,0.3,0.5,0.6,0.8,0.8c0.3,0.1,0.6,0.2,0.9,0.2c0.3,0,0.7,0,1-0.1l0.3,1
			c-0.5,0.1-0.9,0.2-1.4,0.2c-0.5,0-0.9-0.1-1.3-0.4c-0.5-0.3-1-0.7-1.3-1.2c-0.3-0.5-0.5-1-0.5-1.6s0.1-1.1,0.4-1.7
			c0.3-0.5,0.7-1,1.2-1.3c0.5-0.3,1-0.5,1.6-0.5c0.6,0,1.2,0.1,1.7,0.4c0.4,0.2,0.8,0.5,1.1,0.9c0.3,0.4,0.5,0.8,0.6,1.2l-1,0.5
			C87.3,22.8,87.2,22.5,87,22.2z"/>
		<path d="M99.6,31.1c0.2,0.6,0.2,1.1,0,1.7c-0.1,0.6-0.4,1-0.9,1.5s-0.9,0.7-1.5,0.8c-0.6,0.1-1.1,0.1-1.7,0s-1.1-0.5-1.5-0.9
			c-0.4-0.4-0.7-1-0.9-1.5c-0.2-0.6-0.2-1.1,0-1.7c0.1-0.6,0.4-1.1,0.9-1.5c0.4-0.4,0.9-0.7,1.5-0.8c0.6-0.1,1.1-0.1,1.7,0.1
			c0.6,0.2,1.1,0.5,1.5,0.9C99.1,30,99.4,30.5,99.6,31.1z M96.9,29.8c-0.4-0.1-0.7-0.1-1.1,0c-0.4,0.1-0.7,0.3-1,0.6
			c-0.3,0.3-0.5,0.6-0.6,1c-0.1,0.4-0.1,0.7,0,1.1c0.1,0.4,0.3,0.7,0.5,1c0.3,0.3,0.6,0.5,0.9,0.6c0.4,0.1,0.7,0.1,1.1,0
			c0.4-0.1,0.7-0.3,1-0.6s0.5-0.6,0.6-1s0.1-0.7,0-1.1c-0.1-0.4-0.3-0.7-0.5-1C97.6,30.1,97.3,29.9,96.9,29.8z"/>
		<path d="M106.6,40.2l0.6,1.3l-2.8,3.6l4.6,0.2l0.6,1.3l-5.8,2.7l-0.5-1l4.1-1.9l-4.4-0.1l-0.3-0.7l2.7-3.4l-4.1,1.9l-0.5-1
			L106.6,40.2z"/>
		<path d="M112.1,56.4l0.2,1.2l-6.3,0.9l-0.2-1.2L112.1,56.4z"/>
		<path d="M112,72.1l-0.2,1.2l-6.3-0.8l0.2-1.1l4.8-2.7l-4.3-0.6l0.2-1.2l6.3,0.8l-0.2,1.1l-4.8,2.7L112,72.1z"/>
		<path d="M104.1,85.6l-0.5,1l-2.2-1.1c-0.1-0.4-0.1-0.8,0-1.3c0.1-0.5,0.2-0.9,0.4-1.3c0.3-0.6,0.6-1,1.1-1.3
			c0.5-0.3,1-0.5,1.6-0.6s1.1,0.1,1.7,0.3c0.5,0.3,1,0.6,1.3,1.1c0.3,0.5,0.5,1,0.5,1.6c0,0.6-0.1,1.2-0.4,1.8
			c-0.2,0.4-0.5,0.8-0.8,1.1c-0.3,0.3-0.7,0.6-1.1,0.7l-0.5-1c0.3-0.1,0.6-0.3,0.8-0.5c0.3-0.2,0.4-0.5,0.6-0.8
			c0.2-0.4,0.2-0.7,0.2-1.1c0-0.4-0.1-0.7-0.4-1.1c-0.2-0.3-0.5-0.6-0.9-0.7c-0.4-0.2-0.7-0.2-1.1-0.2c-0.4,0-0.7,0.2-1.1,0.4
			c-0.3,0.2-0.6,0.5-0.7,0.9c-0.1,0.2-0.2,0.4-0.2,0.7c0,0.2-0.1,0.5,0,0.7L104.1,85.6z"/>
	</g>
	<g>
		<path d="M37.3,98.1c-0.2-0.3-0.4-0.5-0.6-0.7c-0.2-0.2-0.4-0.3-0.6-0.3c-0.2,0-0.4,0-0.5,0.2c-0.1,0.1-0.2,0.3-0.1,0.5
			c0,0.2,0.1,0.3,0.2,0.5c0.1,0.2,0.2,0.4,0.4,0.7c0.3,0.4,0.4,0.7,0.6,1c0.1,0.3,0.2,0.6,0.2,0.9c0,0.3-0.1,0.6-0.4,0.9
			c-0.2,0.3-0.5,0.5-0.9,0.6c-0.3,0.1-0.7,0.1-1.1,0c-0.4-0.1-0.8-0.3-1.1-0.6c-0.4-0.3-0.7-0.7-1-1.1c-0.3-0.4-0.4-0.9-0.5-1.3
			l1-0.5c0.1,0.4,0.2,0.8,0.4,1.2c0.2,0.4,0.4,0.7,0.7,0.9c0.3,0.2,0.5,0.3,0.7,0.3c0.2,0,0.4-0.1,0.6-0.2c0.1-0.1,0.2-0.3,0.1-0.5
			c0-0.2-0.1-0.3-0.2-0.5c-0.1-0.2-0.2-0.4-0.4-0.7c-0.3-0.4-0.4-0.7-0.6-1c-0.1-0.3-0.2-0.6-0.2-0.9c0-0.3,0.1-0.6,0.4-0.9
			c0.2-0.3,0.5-0.5,0.8-0.6c0.3-0.1,0.7-0.1,1.1,0c0.4,0.1,0.7,0.3,1.1,0.6c0.3,0.3,0.6,0.6,0.8,0.9c0.2,0.3,0.4,0.7,0.5,1.1l-1,0.5
			C37.6,98.7,37.5,98.4,37.3,98.1z"/>
		<path d="M50,104c0.4,0.5,0.6,1,0.7,1.5c0.1,0.6,0,1.1-0.2,1.7c-0.2,0.6-0.6,1-1,1.4c-0.5,0.4-1,0.6-1.6,0.7
			c-0.6,0.1-1.2,0-1.8-0.2c-0.6-0.2-1.1-0.6-1.4-1c-0.4-0.5-0.6-1-0.7-1.5c-0.1-0.6,0-1.1,0.2-1.7c0.2-0.6,0.6-1,1-1.4
			c0.5-0.4,1-0.6,1.6-0.7c0.6-0.1,1.2,0,1.8,0.2C49.1,103.2,49.6,103.6,50,104z M47.1,103.9c-0.4,0.1-0.7,0.2-1,0.4
			s-0.5,0.5-0.7,0.9s-0.2,0.7-0.1,1.1c0.1,0.4,0.2,0.7,0.5,1c0.2,0.3,0.5,0.5,0.9,0.7c0.4,0.1,0.7,0.2,1.1,0.1
			c0.4-0.1,0.7-0.2,1-0.5c0.3-0.2,0.5-0.5,0.7-0.9c0.1-0.4,0.2-0.7,0.1-1.1c-0.1-0.4-0.2-0.7-0.4-1c-0.2-0.3-0.5-0.5-0.9-0.6
			C47.8,103.9,47.5,103.8,47.1,103.9z"/>
		<path d="M63.5,106.3c0.5,0.3,0.9,0.7,1.2,1.2c0.3,0.5,0.4,1.1,0.4,1.7c0,0.6-0.2,1.1-0.5,1.6c-0.3,0.5-0.7,0.9-1.3,1.1
			c-0.5,0.3-1.1,0.4-1.7,0.4c-0.6,0-1.2-0.2-1.7-0.5c-0.5-0.3-0.9-0.7-1.2-1.2c-0.3-0.5-0.4-1.1-0.4-1.7c0-0.6,0.2-1.1,0.5-1.6
			c0.3-0.5,0.7-0.9,1.3-1.1s1.1-0.4,1.7-0.4C62.4,105.8,63,106,63.5,106.3z M60.7,107.1c-0.3,0.2-0.6,0.4-0.8,0.7
			c-0.2,0.3-0.3,0.7-0.3,1.1c0,0.4,0.1,0.8,0.2,1.1c0.2,0.3,0.4,0.6,0.8,0.8c0.3,0.2,0.7,0.3,1.1,0.3c0.4,0,0.7-0.1,1.1-0.2
			c0.3-0.2,0.6-0.4,0.8-0.8c0.2-0.3,0.3-0.7,0.3-1.1c0-0.4-0.1-0.8-0.2-1.1c-0.2-0.3-0.4-0.6-0.7-0.8c-0.3-0.2-0.7-0.3-1-0.3
			C61.4,106.8,61,106.9,60.7,107.1z"/>
		<path d="M77,103.7l1.1-0.3l1.8,6.1l-1.1,0.3l-4.4-3.3l1.2,4.2l-1.1,0.3l-1.8-6.1l1.1-0.3l4.4,3.3L77,103.7z"/>
	</g>
	<circle cx="64.2" cy="19.2" r="1"/>
	<circle cx="92.9" cy="98.7" r="1"/>
	<circle cx="21.6" cy="86.4" r="1"/>
</g>
</svg>
